# xmcd
#
# Track frame offsets: 
#        150
#        18569
#        34004
#        53964
#        75741
#        88339
#        114259
#        129988
#        147294
#        165705
#        187924
#        206460
#
# Disc length: 2963 seconds
#
# Revision: 0
# Processed by: cddbd v1.5.1PL2 Copyright (c) Steve Scherf et al.
# Submitted via: ExactAudioCopy v0.95b4
#
DISCID=9b0b910c
DTITLE=The Dynatones - Chopped and Channeled 
DYEAR=1991
DGENRE=R&B
TTITLE0=When I Think About Love
TTITLE1=Shoot Your Shot
TTITLE2=Tear the House Down
TTITLE3=Savin' Up
TTITLE4=Soul Twist
TTITLE5=America Right Now
TTITLE6=Hard Way to Go
TTITLE7=Danger Zone
TTITLE8=Your Love is Such a Wonderful Love
TTITLE9=She's Got That Stuff
TTITLE10=History is Made at Night
TTITLE11=Every Goodbye (Don't Mean I'm Gone)
EXTD=
EXTT0=
EXTT1=
EXTT2=
EXTT3=
EXTT4=
EXTT5=
EXTT6=
EXTT7=
EXTT8=
EXTT9=
EXTT10=
EXTT11=
PLAYORDER=
